# xmcd CD database file
#
# Track frame offsets:
#	150
#	14453
#	25579
#	35818
#	47696
#	59198
#	71548
#	86202
#	99948
#	110885
#	122545
#	135919
#	147718
#	160648
#	174709
#	187778
#	197409
#	209398
#	221470
#	232959
#	245365
#
# Disc length: 3453 seconds
#
# Revision: 0
# Processed by: cddbd v1.4PL0 Copyright (c) Steve Scherf et al.
# Submitted via: CDex 1.50
#
DISCID=290d7b15
DTITLE=King Cole Trio - Anthology
DYEAR=1945
DGENRE=Jazz
TTITLE0=Laura
TTITLE1=Do Nothin' Till You Hear From Me
TTITLE2=Baby Won't You Please Come Home
TTITLE3=Sweet Lorraine
TTITLE4=It Only Happens Once
TTITLE5=You Call It Madness But I Call It Love
TTITLE6=I Realize Now
TTITLE7=You Must Be Blind
TTITLE8=Too Marvelous For Words
TTITLE9=The Man I Love
TTITLE10=It's Only A Paper Moon
TTITLE11=I Wanna Turn Out My Light
TTITLE12=Besame Mucho
TTITLE13=Penthhouse Serenade
TTITLE14=I'm In The Mood For Love
TTITLE15=Keep Knockin' On Wood
TTITLE16=Baby
TTITLE17=Is You Is Or Is You Ain't My Baby
TTITLE18=I Can't Give You Anything But Love
TTITLE19=If Yesterday Could Only Be Tomorrow
TTITLE20=Cherokee
EXTD=YEAR: 1945
EXTT0=
EXTT1=
EXTT2=
EXTT3=
EXTT4=
EXTT5=
EXTT6=
EXTT7=
EXTT8=
EXTT9=
EXTT10=
EXTT11=
EXTT12=
EXTT13=
EXTT14=
EXTT15=
EXTT16=
EXTT17=
EXTT18=
EXTT19=
EXTT20=
PLAYORDER=
